<svg xmlns="http://www.w3.org/2000/svg" viewBox="0 0 512 512" width="100%" height="100%">
  <defs>
    <clipPath id="icon-clip">
      <rect x="32" y="32" width="448" height="448" rx="96" />
    </clipPath>
    
    <linearGradient id="gold-grad" x1="0%" y1="0%" x2="100%" y2="100%">
      <stop offset="0%" stop-color="#EDC200" />
      <stop offset="100%" stop-color="#D1C6AB" />
    </linearGradient>
  </defs>



  <g transform="translate(0, 0)">
    
    <path d="M256 60 L380 130 L380 320 L256 450 L132 320 L132 130 Z" 
          fill="#2A2A2A" 
          stroke="#E5E2E1" 
          stroke-width="8" 
          stroke-linejoin="round" />

    <path d="M160 150 L220 120 L220 350 L160 380 Z" fill="#D1C6AB" opacity="0.8" />
    <path d="M352 150 L292 120 L292 350 L352 380 Z" fill="#D1C6AB" opacity="0.8" />

    <path d="M220 160 L245 150 L245 320 L220 340 Z" fill="#8C1616" />
    <path d="M292 160 L267 150 L267 320 L292 340 Z" fill="#004A94" />

    <line x1="256" y1="100" x2="256" y2="390" stroke="#1C1B1B" stroke-width="4" />

    <path d="M256 160 L300 235 L256 310 L212 235 Z" 
          fill="url(#gold-grad)" 
          stroke="#E5E2E1" 
          stroke-width="6" 
          stroke-linejoin="round" />

    <path d="M256 180 L280 235 L256 290 L240 235 Z" fill="#E5E2E1" opacity="0.4" />
    
    <circle cx="256" cy="115" r="12" fill="#EDC200" stroke="#2A2A2A" stroke-width="3" />
    <circle cx="170" cy="235" r="10" fill="#E5E2E1" stroke="#2A2A2A" stroke-width="3" />
    <circle cx="342" cy="235" r="10" fill="#E5E2E1" stroke="#2A2A2A" stroke-width="3" />
    <circle cx="256" cy="355" r="12" fill="#EDC200" stroke="#2A2A2A" stroke-width="3" />

    <line x1="256" y1="127" x2="256" y2="160" stroke="#E5E2E1" stroke-width="3" stroke-dasharray="4" />
    <line x1="180" y1="235" x2="212" y2="235" stroke="#E5E2E1" stroke-width="3" stroke-dasharray="4" />
    <line x1="300" y1="235" x2="332" y2="235" stroke="#E5E2E1" stroke-width="3" stroke-dasharray="4" />
    <line x1="256" y1="310" x2="256" y2="343" stroke="#E5E2E1" stroke-width="3" stroke-dasharray="4" />

  </g>
</svg>
